<?xml version="1.0" encoding="UTF-8"?>
<svg xmlns="http://www.w3.org/2000/svg" version="1.1" viewBox="0 0 595.3 665.4">
  <defs>
    <style>
      .cls-1 {
        fill: #231f20;
      }
    </style>
  </defs>
  <!-- Generator: Adobe Illustrator 28.6.0, SVG Export Plug-In . SVG Version: 1.2.0 Build 709)  -->
  <g>
    <g id="Layer_1">
      <g>
        <path class="cls-1" d="M559.9,351.2c-1.7-27-25-319.5-26.4-329.9-.3-2.2.6-6-3.5-6-6.3,0-12.5.1-18.8.6-28.5,2.3-56.2,5.9-85.4,9.1-37.8,3.9-75.5,8.9-113.3,12.3-26.1,2.4-52.1,5.9-78.2,8.1-21.7,1.8-43.3,3.8-65.1,4.9-45.9,2.2-91.2,10.5-137.1,13.3-5,.3-9.8,1.7-14.8,2-2.5.2-2.9,1.2-2.9,3.1-.2,9,1.3,55.4,1.3,69.7,0,16.8,1.4,33.5,1.3,50.3-.3,31,4.4,112.6,4.5,122.3,0,16.1,2.2,97.4,3.2,121,1.1,26.4,5.5,148.2,6.4,160.4.2,2.8,0,5.5,4.1,5.9,10.7.9,21.4,2.1,32.1,3,13.6,1.2,318,31.4,339.7,33.6,21.1,2.2,42.2,4.8,63.3,7,24.9,2.5,49.8,4.8,74.8,7.2,11.7,1.1,23.4,2.3,35.1,3.5,3.6.4,4.7-.9,4.3-4.7-1.4-15.2-22.5-268-24.3-296.7M582.7,665.3c-15.2-.6-30.3-2.9-45.5-4.5-21.1-2.3-42.2-4.6-63.3-6.8-26.4-2.8-412.5-41.2-442.3-44.9-7.4-.9-11.3-3.4-11.5-11.4-.6-21.5-1.8-43.1-2.6-64.6-2.2-63.4-4.2-126.8-6.4-190.3-1.4-39.5-2.9-79.1-4.4-118.6C4.6,172.1,2.3,120,0,67.8c-.2-4.1.7-8,1.7-11.8,1.4-5.2,6.6-4.2,9.8-4.3,35.8-1.4,71.3-5,106.9-8.8,17.8-1.9,35.8-3.2,53.8-4.8,35.1-3.1,70.3-5.8,105.3-9.3,39.6-4,244.7-25.6,259.5-28.4,5.4-1,7.5.8,7.7,6.7,1.3,38.3,4.3,76.5,7,114.7,1.3,18.4,19.1,241.1,21.6,276.1,1.7,24.4,4,48.8,6.4,73.1,3.2,32.7,4.9,65.4,8.2,98.1,2.1,20.9,2.9,42,5.1,62.9.9,8.9.4,17.8,2.3,26.7.8,3.5-2.3,7.6-12.5,6.8"/>
        <path class="cls-1" d="M338.9,463.6c14.8-12.7,29.5-23.9,43-36.1,9-6.7,5.1-29.7-3.8-33.5-1-.6-2.3-1-3.5-1-7.8,0-16.5,2.5-24,4.4-10.4,2.7-14,7.4-13.8,18.2.4,15.5,1.3,30.9,2.1,48M346.6,472.6c4.7,2.5,61.4,51.7,78.7,69,4.8,4.8,9.2,9.8,14.8,13.8,5.5,5.4,5.7,8,3,12.7-2.5,4.2-6.9,2.8-9.2.4-6.3-6.5-12.4-13.1-18.6-19.6-9.8-10.4-64.5-57.8-74.5-64.7,0,5.2,2.6,52.7,2.9,72.5-.3,9-1.5,12.4-8.6,13.2-3.3.4-7.1-4.4-7.3-9.2-.9-18-3.4-101.4-4.4-126.2-.3-8.5-1-17.1-.5-25.6.5-7.5,2.6-12.9,10.6-16.6,11.8-4.4,20.5-7.5,31.7-8.9,22.1-2.6,32.9,7.6,33.8,29.7.7,17.2-7.4,22.9-21,34.6-9.9,8.6-24.1,18.5-31.3,24.7"/>
        <path class="cls-1" d="M323.7,274.9c5.8.2,7.1-.6,6.6-7.5-.4-6.9-6.7-57.1-9-77.2-1.7-20.9-3.4-39.2-5.2-59.5-.4-5.1-1.6-6.6-6.5-7.1-22.5-2.3-42.5.5-65-1.4-2.9-.2-4.2,1.3-4.4,3.9-.3,6.1,1,51.1,1,69.6,0,24.5,2.5,51.9,3.4,74.9.2,5,.6,5.2,6.3,5.4,16.2-.5,62.4-1.5,72.6-1.1M236.7,288.4c-6.1.4-8.3-1.3-8.6-7.6-1.5-29.6-2.5-59.1-2.9-88.7-.3-22.3-2.2-44.6-1.6-66.9,0-3.3.4-6.4,1.3-9.6,1.2-3.9,3.3-5,7.1-4.9,28.8,1.1,57.5,2.1,86.3,2.9,5.1.1,9,2.3,9.1,7,2.4,34.9,5,66.4,9.4,101.5,2.9,19.8,4.4,39.3,7.6,58.7,1,5.7-.9,5.9-4.9,5.9-15.1,0-82.6.2-102.9,1.7"/>
        <path class="cls-1" d="M237.4,546c7.7-7.3,48.9-47.8,53.9-77.7,2.9-12.5-3.6-26.5-15.1-29.9-7.9-2.8-16.1-2.7-25.7,6.9-1.9,1.9-14.9,13.3-15.5,10.1-1.9-11.5-6.3-25.8-7.8-31.9-1.7-5.9-6.6-14.5-14.8-16.4-6.7-1.5-12.7,2.2-15.7,7.1-2,3.4-12.5,15,1.3,55.3,11.6,26.7,24.5,51.4,39.3,76.4M243.1,436.1c14.5-10.2,28.2-15.5,44.9-8.4,9.6,4.1,15,13.9,16.3,20.8,3.7,19.8-3.3,40.3-16.5,58.1-13.4,18-28.9,34.2-43.7,51-6,6.9-10.5,6.3-14.1-1.8-8.3-18.7-21-35.8-29.9-54.1-9.8-20.2-18.1-41.4-20-63.4-1-11.6.8-24.8,11.7-35.1,12.9-12.1,28.1-9.1,37.2,1,7.8,8.6,13.3,23,14.1,31.9"/>
        <path class="cls-1" d="M149,123.6c-7.4,1.7-64,15.6-86.2,21.3-4.5,1.2-10.9,3-12.1-5.5-.5-3.4-.2-4.3,3.6-5.4,26.6-7.4,53-14.2,80.2-20.4,13-3,22.9-7.3,30.3-4.4,4.9,1.9,5,4.4,3,8.6-8.5,17-16.9,30.6-24.6,46.3-17.6,35.8-39.9,72.4-59,107.9-3.6,7.5-1.8,5.8,6.7,5.6,30.6-.9,61.1-2,91.7-2.8,4.5-.1,7.8.3,11.2,5.3,1.5,2.1,3.3,3.9,2,6.7-1.2,2.5-3.6,2.4-5.9,2.3-14.3-.5-28.5-.5-42.8-.5-27.3,0-54.7.1-82,1-6.9.2-8.7-2.3-5.2-8.5,17.3-31.3,38.6-64.1,55.4-95.6,10-18.9,32.5-58.8,33.5-61.7"/>
        <path class="cls-1" d="M154.9,446.7c0,24.8-.2,49.6.1,74.5,0,6.4.9,25-.7,26.4-2.3,2-7,2.1-9.2-.7-2-2.5-1.7-5.9-1.7-9.9-.2-15.8-.8-31.6-1-47.3,0-5.2-.7-7.7-7-8.8-19.4-3.4-38.9-6-58.4-8.4-3.7-.5-5.6.3-5.6,4.6-1.3,18.4-3.3,33.5-5.6,49.9-.2,8.6-3.3,12.7-10.9,10-4.6-1.6-4.9-5.1-4.5-9.1,1.3-13.7,3.3-27.3,5-41,3.6-28.6,6.8-54.1,10.1-80.1,1.6-9.2,1.6-11,4-19.6,1.2-4.2,5.2-2.6,7.8-2.1,3.4.6,5.7,3.5,5.2,6.9-2.5,18.9-5,39.1-7.1,58.7-.4,4.1-1,7.1,3,7.3,20,3.2,38.7,6,57.6,8,5.3,1.8,6.5-2.1,6.4-7.2-.3-20.3,0-40.6-.3-61,0-4,1.1-6.8,4.4-8.8,4.4-2.7,7.7.2,7.8,6.7.1,18.3,1,33.7.6,51.1"/>
        <path class="cls-1" d="M400.4,286.3c-5.6-.5-9.3-3.3-10.1-7.9-2.9-15.8-3.7-31.8-5.8-47.7-3.3-24.9-6.9-49.9-10.2-74.8-1.6-12.4-3.2-24.8-4.3-37.2-.4-4.8,4.5-7.4,9.6-8.2,15.2-2.4,60.1-15.3,67.8-17.1,4.5-1.1,7.9,3,8.5,6.8.5,3-3.4,3.7-6,4.5-20.3,5.9-38.4,10.1-58.7,16-2.2.6-4.6,2.5-4.4,5.1,1.7,24.4,4.4,49.3,8.2,73.5,1,6.3,3.9,5.9,7.9,5.2,12-2.1,40.1-8.5,43.6-8.4,2.2,0,5.8-1,6.1,2.6.2,2.7-.5,5.9-3.7,7.6-2.7,1.5-5.5,1.9-8.6,2.3-13.6,2-24.7,3.8-38.1,7.2-2.1.5-5,.7-4.1,4.8,2.5,16.5,3.6,29.3,7.1,43.8,1.6,6.8,4.9,8.4,11.4,8.4,23,0,43.5,0,66.5.5,3.3,0,6.6.5,9.1,2.8,1.9,1.7,1.2,4.1.4,6.3-1.1,2.8-3.2,3.2-6,3.2-9.5-.2-63.3.5-86.3.6"/>
        <path class="cls-1" d="M468.5,394.4c23.6.5,45.8,1.1,69.1.9,3.9-.1,9.7-.2,10.1,5.6.3,4.9-.5,6.5-3,7.6-1.9,1.3-26.6.7-40.4.3-5.1.4-12.1,0-12.1,6.8-1.4,23.2-.5,46.2-1,69.4-.6,26.9-.4,53.8.6,80.8,0,2.5.9,14.5-1.1,16.5-3.3,3.2-8,3.5-12.3.9-1.1-.7-2.6-4.6-2.5-6.5.7-27.5,1.4-142.1,1.4-161.1s-.7-6.7-5.6-6.9c-13.6-.1-21.4-.5-35.8,0-5.1-.1-6-1.4-6.2-5.4-.2-3.5-.5-8.4,4.3-8.6,15.2-.7,22.1-.4,34.6-.4"/>
      </g>
    </g>
  </g>
</svg>